<?xml version="1.0" encoding="UTF-8" standalone="no"?>
<!-- Generator: Adobe Illustrator 15.1.0, SVG Export Plug-In . SVG Version: 6.00 Build 0)  -->

<svg
   xmlns:dc="http://purl.org/dc/elements/1.1/"
   xmlns:cc="http://creativecommons.org/ns#"
   xmlns:rdf="http://www.w3.org/1999/02/22-rdf-syntax-ns#"
   xmlns:svg="http://www.w3.org/2000/svg"
   xmlns="http://www.w3.org/2000/svg"
   xmlns:xlink="http://www.w3.org/1999/xlink"
   xmlns:sodipodi="http://sodipodi.sourceforge.net/DTD/sodipodi-0.dtd"
   xmlns:inkscape="http://www.inkscape.org/namespaces/inkscape"
   version="1.1"
   id="Layer_1"
   x="0px"
   y="0px"
   width="100"
   height="100"
   viewBox="0 0 100 100"
   enable-background="new 0 0 250 200"
   xml:space="preserve"
   inkscape:version="0.91 r13725"
   sodipodi:docname="DDG-txt-small.svg"
   inkscape:export-xdpi="57.599998"
   inkscape:export-ydpi="57.599998"
   inkscape:export-filename="C:\Users\lelimacon\Pictures\svg\DDG-txt-small.png"><metadata
     id="metadata116"><rdf:RDF><cc:Work
         rdf:about=""><dc:format>image/svg+xml</dc:format><dc:type
           rdf:resource="http://purl.org/dc/dcmitype/StillImage" /><dc:title /></cc:Work></rdf:RDF></metadata><defs
     id="defs114" /><sodipodi:namedview
     pagecolor="#ffffff"
     bordercolor="#666666"
     borderopacity="1"
     objecttolerance="10"
     gridtolerance="10"
     guidetolerance="10"
     inkscape:pageopacity="0"
     inkscape:pageshadow="2"
     inkscape:window-width="1411"
     inkscape:window-height="761"
     id="namedview112"
     showgrid="false"
     inkscape:zoom="2.76"
     inkscape:cx="19.398285"
     inkscape:cy="49.660326"
     inkscape:window-x="143"
     inkscape:window-y="38"
     inkscape:window-maximized="0"
     inkscape:current-layer="g84" /><g
     id="g3"
     transform="matrix(0.15785796,0,0,0.15785796,-126.87581,36.617299)"><linearGradient
       id="SVGID_1_"
       gradientUnits="userSpaceOnUse"
       x1="277.51859"
       y1="-668.00732"
       x2="277.51859"
       y2="-548.68799"
       gradientTransform="matrix(1,0,0,-1,-150,-530)"><stop
         offset="0"
         style="stop-color:#D14427"
         id="stop6" /><stop
         offset="1"
         style="stop-color:#E55225"
         id="stop8" /></linearGradient><g
       id="g12"
       style="fill:#a5a5a5;fill-opacity:1"
       transform="matrix(1.899392,0,0,1.899392,1057.4577,-11.477943)"><g
         id="g14"
         style="fill:#a5a5a5;fill-opacity:1"><g
           id="g16"
           style="fill:#a5a5a5;fill-opacity:1"><g
             id="g18"
             style="fill:#a5a5a5;fill-opacity:1"><g
               id="g20"
               style="fill:#a5a5a5;fill-opacity:1"><defs
                 id="defs22"><path
                   id="SVGID_2_"
                   d="m 179.922,78.207 c 0,28.895 -23.506,52.4 -52.404,52.4 -28.893,0 -52.396,-23.508 -52.396,-52.4 0,-28.891 23.506,-52.396 52.396,-52.396 28.898,-0.001 52.404,23.505 52.404,52.396 z"
                   inkscape:connector-curvature="0" /></defs><clipPath
                 id="SVGID_3_"><use
                   xlink:href="#SVGID_2_"
                   overflow="visible"
                   id="use26"
                   style="overflow:visible"
                   x="0"
                   y="0"
                   width="100%"
                   height="100%" /></clipPath><g
                 clip-path="url(#SVGID_3_)"
                 id="g28"
                 style="fill:#a5a5a5;fill-opacity:1"><path
                   d="m 148.482,154.541 c -1.801,-8.285 -12.262,-27.039 -16.229,-34.969 -3.965,-7.93 -7.939,-19.11 -6.129,-26.322 0.327,-1.312 -3.436,-11.307 -2.354,-12.014 8.415,-5.49 10.633,0.598 14.002,-1.863 1.738,-1.273 4.09,1.047 4.693,-1.059 2.158,-7.568 -3.006,-20.76 -8.768,-26.527 -1.885,-1.879 -4.773,-3.059 -8.031,-3.686 -1.254,-1.713 -3.275,-3.361 -6.138,-4.879 -3.188,-1.697 -10.121,-3.938 -13.717,-4.535 -2.492,-0.41 -3.055,0.287 -4.119,0.461 0.992,0.088 5.699,2.414 6.615,2.549 -0.916,0.619 -3.607,-0.029 -5.324,0.742 -0.865,0.391 -1.512,1.877 -1.506,2.58 4.91,-0.496 12.574,-0.016 17.1,2 -3.602,0.41 -9.08,0.867 -11.436,2.105 -6.848,3.609 -9.873,12.035 -8.07,22.133 1.804,10.075 9.738,46.849 12.262,59.129 2.525,12.263 -5.408,20.189 -10.455,22.354 l 5.408,0.363 -1.801,3.967 c 6.484,0.719 13.695,-1.441 13.695,-1.441 -1.438,3.965 -11.176,5.412 -11.176,5.412 0,0 4.691,1.438 12.258,-1.447 7.575,-2.883 12.261,-4.688 12.261,-4.688 l 3.605,9.373 6.854,-6.846 2.884,7.211 c 0.009,-0.001 5.419,-1.808 3.616,-10.103 z"
                   id="path30"
                   inkscape:connector-curvature="0"
                   style="fill:#a5a5a5;fill-opacity:1" /><path
                   d="m 150.66,152.859 c -1.795,-8.289 -12.256,-27.043 -16.227,-34.975 -3.968,-7.935 -7.933,-19.112 -6.129,-26.321 0.334,-1.309 0.34,-6.668 1.428,-7.379 8.41,-5.494 7.813,-0.184 11.186,-2.645 1.74,-1.27 3.133,-2.805 3.738,-4.912 2.164,-7.572 -3.006,-20.76 -8.773,-26.529 -1.879,-1.879 -4.768,-3.062 -8.025,-3.686 -1.252,-1.717 -3.271,-3.361 -6.132,-4.881 -5.391,-2.863 -12.074,-4.006 -18.266,-2.883 0.99,0.09 3.256,2.137 4.168,2.273 -1.381,0.936 -5.053,0.816 -5.029,2.896 4.916,-0.492 10.303,0.285 14.834,2.297 -3.602,0.41 -6.955,1.299 -9.311,2.543 -6.854,3.602 -8.656,10.812 -6.854,20.914 1.807,10.096 9.742,46.869 12.256,59.127 2.527,12.258 -5.402,20.188 -10.449,22.352 l 5.408,0.359 -1.801,3.973 c 6.484,0.717 13.695,-1.443 13.695,-1.443 -1.438,3.972 -11.176,5.406 -11.176,5.406 0,0 4.686,1.443 12.258,-1.445 7.578,-2.883 12.267,-4.684 12.267,-4.684 l 3.602,9.373 6.854,-6.85 2.889,7.211 c -0.007,0.005 5.398,-1.8 3.589,-10.091 z"
                   id="path32"
                   inkscape:connector-curvature="0"
                   style="fill:#a5a5a5;fill-opacity:1" /><path
                   d="m 109.211,70.074 c 0,-2.092 1.693,-3.787 3.789,-3.787 2.09,0 3.785,1.695 3.785,3.787 0,2.094 -1.695,3.787 -3.785,3.787 -2.096,0 -3.789,-1.693 -3.789,-3.787 z"
                   id="path34"
                   inkscape:connector-curvature="0"
                   style="fill:#a5a5a5;fill-opacity:1" /><path
                   d="m 113.697,68.812 c 0,-0.545 0.441,-0.984 0.98,-0.984 0.543,0 0.984,0.439 0.984,0.984 0,0.543 -0.441,0.984 -0.984,0.984 -0.538,10e-4 -0.98,-0.441 -0.98,-0.984 z"
                   id="path36"
                   inkscape:connector-curvature="0"
                   style="fill:#a5a5a5;fill-opacity:1" /><path
                   d="m 135.057,67.828 c 0,-1.793 1.461,-3.25 3.252,-3.25 1.801,0 3.256,1.457 3.256,3.25 0,1.801 -1.455,3.258 -3.256,3.258 -1.791,0 -3.252,-1.457 -3.252,-3.258 z"
                   id="path38"
                   inkscape:connector-curvature="0"
                   style="fill:#a5a5a5;fill-opacity:1" /><path
                   d="m 138.914,66.746 c 0,-0.463 0.379,-0.842 0.838,-0.842 0.477,0 0.844,0.379 0.844,0.842 0,0.469 -0.367,0.842 -0.844,0.842 -0.459,0 -0.838,-0.373 -0.838,-0.842 z"
                   id="path40"
                   inkscape:connector-curvature="0"
                   style="fill:#a5a5a5;fill-opacity:1" /><linearGradient
                   id="SVGID_4_"
                   gradientUnits="userSpaceOnUse"
                   x1="255.5088"
                   y1="-590.36328"
                   x2="264.0762"
                   y2="-590.36328"
                   gradientTransform="matrix(1,0,0,-1,-150,-530)"><stop
                     offset="0.0056"
                     style="stop-color:#6176B9"
                     id="stop43" /><stop
                     offset="0.691"
                     style="stop-color:#394A9F"
                     id="stop45" /></linearGradient><path
                   d="m 114.076,59.101 c 0,0 -2.854,-1.291 -5.629,0.453 -2.77,1.742 -2.668,3.523 -2.668,3.523 0,0 -1.473,-3.283 2.453,-4.891 3.93,-1.61 5.844,0.915 5.844,0.915 z"
                   id="path47"
                   style="fill:#a5a5a5;fill-opacity:1"
                   inkscape:connector-curvature="0" /><linearGradient
                   id="SVGID_5_"
                   gradientUnits="userSpaceOnUse"
                   x1="282.46289"
                   y1="-587.75391"
                   x2="290.26761"
                   y2="-587.75391"
                   gradientTransform="matrix(1,0,0,-1,-150,-530)"><stop
                     offset="0.0056"
                     style="stop-color:#6176B9"
                     id="stop50" /><stop
                     offset="0.691"
                     style="stop-color:#394A9F"
                     id="stop52" /></linearGradient><path
                   d="m 140.268,58.841 c 0,0 -2.051,-1.172 -3.643,-1.152 -3.268,0.043 -4.162,1.488 -4.162,1.488 0,0 0.549,-3.445 4.734,-2.754 2.266,0.377 3.071,2.418 3.071,2.418 z"
                   id="path54"
                   style="fill:#a5a5a5;fill-opacity:1"
                   inkscape:connector-curvature="0" /></g></g></g></g></g><path
         d="m 124.59,84.678 c 0.379,-2.291 6.299,-6.625 10.49,-6.887 4.201,-0.264 5.51,-0.205 9.01,-1.043 3.508,-0.838 12.535,-3.088 15.033,-4.242 2.504,-1.156 13.102,0.572 5.631,4.738 -3.234,1.809 -11.945,5.131 -18.172,6.988 -6.219,1.861 -9.99,-1.777 -12.059,1.281 -1.646,2.432 -0.334,5.762 7.098,6.453 10.037,0.93 19.66,-4.52 20.719,-1.625 1.064,2.895 -8.625,6.508 -14.527,6.623 -5.891,0.111 -17.776,-3.896 -19.553,-5.137 -1.785,-1.239 -4.164,-4.13 -3.67,-7.149 z"
         id="path56"
         inkscape:connector-curvature="0"
         style="fill:#a5a5a5;fill-opacity:1" /></g></g><g
     id="g58"
     transform="matrix(1.899392,0,0,1.899392,-36.349049,-246.38224)"><g
       id="g84" /><g
       id="g92"
       transform="matrix(1.1533747,0,0,1.1533747,-191.99076,-37.664216)"><path
         d="m 196.908,180.418 c -9.457,0 -12.812,-6.75 -12.812,-12.529 -0.019,-3.765 1.256,-7.125 3.584,-9.467 2.293,-2.305 5.473,-3.523 9.193,-3.523 3.367,0 6.537,1.279 8.938,3.604 l -1.606,1.869 c -1.886,-1.763 -4.681,-2.853 -7.329,-2.853 -6.854,0 -9.979,5.375 -9.979,10.369 0,4.912 3.105,9.873 10.049,9.873 2.529,0 4.885,-0.867 6.81,-2.512 l 0.088,-0.074 0,-6.064 -7.729,0 0,-2.479 10.277,0 0,9.646 c -2.647,2.796 -5.74,4.14 -9.484,4.14 z"
         id="path94"
         inkscape:connector-curvature="0"
         style="fill:#4c4c4c" /></g><g
       id="g96"
       transform="matrix(1.1533747,0,0,1.1533747,-191.99076,-37.664216)"><path
         d="m 218.643,180.275 c -5.187,0 -8.949,-3.748 -8.949,-8.914 0,-5.246 3.766,-9.055 8.949,-9.055 5.289,0 8.983,3.723 8.983,9.055 0,5.166 -3.778,8.914 -8.983,8.914 z m 0.034,-15.56 c -3.726,0 -6.327,2.734 -6.327,6.646 0,3.729 2.646,6.436 6.293,6.436 3.709,0 6.326,-2.646 6.362,-6.434 0,-3.853 -2.661,-6.648 -6.328,-6.648 z"
         id="path98"
         inkscape:connector-curvature="0"
         style="fill:#4c4c4c" /></g></g></svg>