<svg xmlns="http://www.w3.org/2000/svg" width="60" height="60" viewBox="0 0 60 60.000002">
  <path d="M44.746346 45.956425c-.924052-3.183141-1.573577-6.445279-2.161754-9.749792-.347604-1.99146.283278-3.56493 1.688359-4.21091.459047-.211046 1.19532-.426403 1.488037-.435246l.09777-.003-.100009-.04391c-.322543-.141614-1.347842-.255251-2.156746-.23904-.621182.01245-.608187.01748-.500399-.193707.0963-.188695.171143-.235632.559877-.35115.199536-.0593.370644-.115657.380235-.125251.0096-.0096-.01756-.03148-.06037-.04863s-.252668-.104164-.466337-.193366l-.388496-.162183.127791-.0364c.446563-.1272 1.533679-.130275 2.11222-.006.958742.205984 1.838621.647207 2.382366 1.194654.218158.219647.240054.232828.501701.302056.568375.150384.904632.33058 1.227376.657738.758226.768581 1.424948 2.180268 1.646834 3.486918.05174.304631.05217 1.038469.000719 1.250817-.02123.08751-.03353.164102-.02749.170195.03475.03475 2.149881-.54807 2.573699-.709191.237068-.09012.307454-.102141.594767-.101549.616153.0013 1.059111.184515 1.059111.438131 0 .202217-.381106.466865-1.145355.795356-.814523.350101-2.505134.946617-2.949949 1.040865-.291501.06177-.643718.06048-1.077055-.0039-.637394-.09471-.855408-.03116-1.006519.293368-.09268.199029-.0967.317434-.01677.493411.118552.260993.471229.463173 1.004209.575692.24956.05268.437274.06739.857221.06717.638228-.000337.971953-.04629 1.987876-.273686 1.084086-.242661 1.361866-.245624 1.419717-.01515.08629.343794-.816135.853802-1.941127 1.097037-.444368.09608-1.105463.103424-1.580513.01756-.783072-.14153-2.050886-.514788-2.610662-.7686-.120992-.05486-.231794-.08794-.246228-.0735-.05785.05784-.0904.644482-.05735 1.034123.327867 2.099999 1.076689 3.43024 1.784727 5.237867" fill="#b2b4b4"/>
  <path d="M17.857631 49.606732c-12.9248363 0-17.51009846-9.225192-17.51009846-17.123324-.025975-5.145607 1.71657176-9.737704 4.89824226-12.938504 3.1338272-3.150232 7.4799212-4.814866 12.5640282-4.814866 4.601661 0 8.934082 1.748003 12.215517 4.925569l-2.19491 2.554353c-2.577584-2.409483-6.397504-3.899181-10.016513-3.899181-9.367327 0-13.6382491 7.345986-13.6382491 14.171262 0 6.713207 4.2435866 13.493382 13.7339201 13.493382 3.45637 0 6.676306-1.184925 9.307194-3.433138l.120272-.101136V34.15351H16.773847v-3.388038h14.045526v13.183142c-3.617642 3.82128-7.844831 5.658118-12.961742 5.658118zm29.705123-.195437c-7.08905 0-12.230556-5.122374-12.230556-12.182721 0-7.169683 5.146974-12.375425 12.230556-12.375425 7.228448 0 12.277024 5.088206 12.277024 12.375425 0 7.060347-5.163372 12.182721-12.277024 12.182721zm.04648-21.265778c-5.09231 0-8.647078 3.736545-8.647078 9.083057 0 5.096406 3.616274 8.79605 8.60061 8.79605 5.069068 0 8.645711-3.616276 8.694913-8.793317 0-5.265876-3.636774-9.08579-8.648445-9.08579z" fill="#4c4c4c"/>
</svg>
