<svg xmlns="http://www.w3.org/2000/svg" width="400" height="60" viewBox="0 0 400 60.000002">
  <path d="M374.51316 51.223669c-1.28422-4.423834-2.18691-8.957456-3.00434-13.549969-.48309-2.767672.39369-4.954433 2.34643-5.852197.63797-.293305 1.66122-.592601 2.06803-.604891l.13587-.0041-.13899-.06102c-.44826-.19681-1.87319-.354739-2.99738-.33221-.8633.0173-.84524.02429-.69544-.269208.13384-.262243.23785-.327474.7781-.488018.27731-.08241.51511-.160737.52844-.17407.0133-.01333-.0244-.04375-.0839-.06758-.0595-.02384-.35115-.144765-.6481-.268734l-.53992-.225398.1776-.05059c.62062-.176779 2.13146-.181052 2.9355-.0083 1.33243.28627 2.55526.899469 3.31094 1.660295.30319.305258.33362.323577.69725.419788.78991.208999 1.25723.45943 1.70577.914105 1.05376 1.06815 1.98035 3.03007 2.28872 4.846014.0719.423367.0725 1.443232.001 1.738347-.0295.121625-.0466.228064-.0382.236533.0483.0483 2.98784-.761692 3.57685-.985613.32947-.125251.42729-.141953.82659-.14113.85631.0018 1.47192.256433 1.47192.608902 0 .281035-.52965.648834-1.59178 1.105362-1.132.486559-3.48156 1.31558-4.09975 1.446563-.40512.08584-.89462.08406-1.49686-.0054-.88583-.131625-1.18882-.04331-1.39883.407714-.1288.276605-.13439.441161-.0233.685728.16476.362721.6549.643704 1.39562.800079.34683.07321.60771.09366 1.19134.09335.88699-.000468 1.35079-.06433 2.76269-.380361 1.50663-.337242 1.89268-.341361 1.97308-.02106.11992.477795-1.13424 1.186588-2.69772 1.524629-.61757.133526-1.53634.143736-2.19655.02441-1.08829-.196694-2.85026-.715437-3.62822-1.068177-.16815-.07624-.32214-.122214-.3422-.102155-.0804.08038-.12563.895682-.0797 1.437193.45566 2.918515 1.49635 4.767244 2.48036 7.27943" fill="#b2b4b4"/>
  <path d="M6.3573206 55.421136V8.6998917H23.288501c16.12014 0 23.46129 11.8446083 23.46129 22.8553843 0 11.878797-7.253778 23.860162-23.46129 23.860162zm5.3828764-5.382877h11.548304c12.488502 0 18.078413-9.314618 18.078413-18.549462 0-8.480785-5.658289-17.609263-18.078413-17.609263H11.740197zm56.330269 5.920405c-8.649831 0-14.239742-5.958393-14.239742-15.179941V22.63763h5.046685v18.074614c0 6.640275 3.863363 10.606205 10.336491 10.606205 6.068557-.06648 10.471348-4.725687 10.471348-11.077254V22.63763h5.046685v32.783506H80.1468l-.288707-5.701975-.78255.983885c-2.719929 3.418906-6.421844 5.189139-11.005077 5.255618zm41.275684.066479c-8.52827 0-17.132512-5.261316-17.132512-16.997659 0-10.169345 6.885296-16.997659 17.132512-16.997659 4.48447 0 8.42571 1.599288 11.71545 4.752279l-3.17198 3.293545c-2.23179-2.081733-5.28221-3.268853-8.40861-3.268853-7.15691 0-12.154209 5.025791-12.154209 12.220688 0 8.442797 6.070459 12.224487 12.087729 12.224487 3.38472 0 6.45793-1.208014 8.68592-3.401811l3.29735 3.297344c-3.31824 3.238464-7.37154 4.877639-12.05165 4.877639zm23.6702267-47.25687316v28.21926694l14.00421721-14.34990656h6.5282103L138.0991497 38.08728475l17.33575078 17.26737267v.06647872h-6.39715225l-16.02137152-16.0232709v16.0232709h-4.98020583V8.76826984zM161.63831 55.421136V8.6998917h16.92929c16.12014 0 23.46508 11.8446083 23.46508 22.8553843 0 11.878797-7.24997 23.860162-23.46508 23.860162zm5.38098-5.382877h11.54831c12.4885 0 18.08031-9.314618 18.08031-18.549462 0-8.480785-5.65829-17.609263-18.08031-17.609263h-11.54831zm56.32837 5.920405c-8.65173 0-14.23784-5.958393-14.23784-15.179941V22.63763h5.04668v18.074614c0 6.640275 3.86337 10.606205 10.3327 10.606205 6.06475-.06648 10.47324-4.725687 10.47324-11.077254V22.63763h5.04479v32.783506h-4.58893l-.28301-5.701975-.78255.983885c-2.72183 3.418906-6.42185 5.189139-11.00508 5.255618zm41.27949.066479c-8.52827 0-17.13442-5.261316-17.13442-16.997659 0-10.169345 6.8853-16.997659 17.13442-16.997659 4.48256 0 8.4295 1.599288 11.71545 4.752279l-3.17199 3.293545c-2.23368-2.081733-5.28221-3.268853-8.4105-3.268853-7.15691 0-12.15231 5.025791-12.15231 12.220688 0 8.442797 6.07235 12.224487 12.08583 12.224487 3.38471 0 6.45793-1.208014 8.68592-3.403711l3.20047 3.206174-.16714.170945.0931.09307c-3.28595 3.122601-7.28037 4.706694-11.8788 4.706694zm23.66642209-47.25687316v28.21926694l14.00421721-14.34990656h6.5320091l-15.44965454 15.44965453 17.3338514 17.26737267v.06647872H304.316843l-16.02327091-16.0232709v16.0232709h-4.97830643V8.76826984zM337.14403 56.296756c-17.96255 0-24.33501-12.820896-24.33501-23.797483-.0361-7.15121 2.38564-13.533168 6.80743-17.981544 4.3553-4.378098 10.39537-6.6915576 17.46111-6.6915576 6.39525 0 12.41632 2.4293226 16.97676 6.8454086l-3.05042 3.549964c-3.58225-3.348628-8.89106-5.418966-13.92065-5.418966-13.01843 0-18.95403 10.209232-18.95403 19.694796 0 9.329814 5.89761 18.752697 19.08699 18.752697 4.80356 0 9.27853-1.646773 12.93486-4.771272l.16715-.140555V34.820331h-14.6804v-4.708593h19.52005v18.321535c-5.02769 5.3107-10.90251 7.863483-18.01384 7.863483zm41.28329-.271613c-9.85215 0-16.99766-7.118921-16.99766-16.93118 0-9.964211 7.15311-17.198995 16.99766-17.198995 10.04588 0 17.06224 7.071436 17.06224 17.198995 0 9.812259-7.1759 16.93118-17.06224 16.93118zm.0646-29.55454c-7.07714 0-12.01745 5.192938-12.01745 12.62336 0 7.082832 5.02579 12.224486 11.95287 12.224486 7.04484 0 12.01555-5.025791 12.08393-12.220688 0-7.318357-5.05428-12.627158-12.01935-12.627158z" fill="#4c4c4c"/>
</svg>
